<?xml version="1.0" encoding="UTF-8" standalone="no"?>
<svg
   viewBox="0 0 24 24"
   version="1.1"
   id="svg1"
   sodipodi:docname="barry-file-man-logo.svg"
   xml:space="preserve"
   inkscape:version="1.3.2 (091e20e, 2023-11-25, custom)"
   xmlns:inkscape="http://www.inkscape.org/namespaces/inkscape"
   xmlns:sodipodi="http://sodipodi.sourceforge.net/DTD/sodipodi-0.dtd"
   xmlns="http://www.w3.org/2000/svg"
   xmlns:svg="http://www.w3.org/2000/svg"
   xmlns:rdf="http://www.w3.org/1999/02/22-rdf-syntax-ns#"
   xmlns:cc="http://creativecommons.org/ns#"
   xmlns:dc="http://purl.org/dc/elements/1.1/"><defs
     id="defs1" /><sodipodi:namedview
     id="namedview1"
     pagecolor="#505050"
     bordercolor="#eeeeee"
     borderopacity="1"
     inkscape:showpageshadow="0"
     inkscape:pageopacity="0"
     inkscape:pagecheckerboard="0"
     inkscape:deskcolor="#505050"
     inkscape:zoom="32"
     inkscape:cx="16.46875"
     inkscape:cy="12.703125"
     inkscape:window-width="1920"
     inkscape:window-height="1009"
     inkscape:window-x="-8"
     inkscape:window-y="-8"
     inkscape:window-maximized="1"
     inkscape:current-layer="layer2" /><title
     id="title1">folder</title><g
     inkscape:groupmode="layer"
     id="layer1"
     inkscape:label="Folder"
     sodipodi:insensitive="true"><path
       d="M 9.7,2.8 H 2.8 C 1.5235,2.8 0.5,3.8235 0.5,5.1 v 13.8 a 2.3,2.3 0 0 0 2.3,2.3 h 18.4 a 2.3,2.3 0 0 0 2.3,-2.3 V 7.4 C 23.5,6.1235 22.465,5.1 21.2,5.1 H 12 Z"
       id="path1"
       inkscape:label="folder"
       style="fill:#0073cf;fill-opacity:1;stroke-width:1.15"
       sodipodi:insensitive="true" /></g><g
     inkscape:groupmode="layer"
     id="layer2"
     inkscape:label="Lightning Circle"
     sodipodi:insensitive="true"><path
       d="M 12.634766,8.0007812 9.3847656,14.325 h 2.2753904 v 4.074219 L 14.818359,12.075 h -2.183593 z"
       style="fill:#f4ce14;fill-opacity:1;fill-rule:evenodd;stroke-width:0.65"
       id="path4"
       inkscape:label="lightning"
       sodipodi:insensitive="true" /><path
       d="M 11.984375,6.7 C 10.196877,6.7 8.6698425,7.35047 7.4023437,8.6179688 6.134845,9.8854675 5.484375,11.412502 5.484375,13.2 c 0,1.787498 0.65047,3.314533 1.9179687,4.582031 C 8.6698425,19.04953 10.196877,19.7 11.984375,19.7 c 1.787498,0 3.316486,-0.65047 4.583984,-1.917969 1.267499,-1.267498 1.916016,-2.794533 1.916016,-4.582031 0,-1.787498 -0.648517,-3.3145325 -1.916016,-4.5820312 C 15.300861,7.35047 13.771873,6.7 11.984375,6.7 Z m 0.650391,1.3007812 V 12.075 h 2.183593 l -3.158203,6.324219 V 14.325 H 9.3847656 Z"
       style="fill:#000000;fill-opacity:1;fill-rule:evenodd;stroke-width:0.65"
       id="path3"
       inkscape:label="circle"
       sodipodi:insensitive="true" /></g><metadata
     id="metadata4"><rdf:RDF><cc:Work
         rdf:about=""><dc:title>folder</dc:title></cc:Work></rdf:RDF></metadata></svg>
